<svg id="Ebene_1" data-name="Ebene 1" xmlns="http://www.w3.org/2000/svg" viewBox="0 0 1200 1200"><defs><style>.cls-1{fill:#f2f5f7;}.cls-2{fill:none;stroke:#bcccd4;stroke-linecap:round;stroke-miterlimit:10;stroke-width:3.3px;}.cls-3{fill:#d8e4eb;}</style></defs><rect class="cls-1" width="1200" height="1200"/><path class="cls-2" d="M385.84,773.87H334.32a17.31,17.31,0,0,1-17.38-18.13l13.42-326.18a19.11,19.11,0,0,1,18.87-18.13H741"/><path class="cls-2" d="M344.67,518.13l2.95-71.31a19.11,19.11,0,0,1,18.87-18.13l185.33-.15"/><path class="cls-2" d="M803.47,411.43H857.6A17.31,17.31,0,0,1,875,429.56L861.57,755.74a19.12,19.12,0,0,1-18.88,18.13H425.3"/><path class="cls-2" d="M883.08,620.06,876.63,761.6a28.44,28.44,0,0,1-28.08,27H722"/><path class="cls-2" d="M527.36,561.19a51.09,51.09,0,0,1-12.93-36.46c1.21-29.43,26.06-53.29,55.49-53.29A50.73,50.73,0,0,1,621,524.73C619.81,554.16,595,578,565.53,578a51.35,51.35,0,0,1-27.26-7.68"/><path class="cls-3" d="M346.22,760.78H832.15c9.52,0,17.64-8.64,18-19.2l1.49-40.08c0-43.61-37.19-102.76-44.74-119.11-40.72-88.21-117.16-85.83-159.88,17.41-27.26,65.87-96,78.79-134.08,27.86-37.09-49.61-75.71-48.75-114.49,8.12-9.65,14.16-33,49.83-61.77,86.46a33.29,33.29,0,0,0-7.1,19.34h0C329.21,752.14,336.69,760.78,346.22,760.78Z"/></svg>