<?xml version="1.0" encoding="utf-8"?>
<!-- Generator: Adobe Illustrator 25.4.1, SVG Export Plug-In . SVG Version: 6.00 Build 0)  -->
<svg version="1.1" id="Ebene_2" xmlns="http://www.w3.org/2000/svg" xmlns:xlink="http://www.w3.org/1999/xlink" x="0px" y="0px"
	 viewBox="0 0 636.5 181.3" style="enable-background:new 0 0 636.5 181.3;" xml:space="preserve">
<style type="text/css">
	.st0{fill:#123A93;}
	.st1{fill:#041E62;}
	.st2{fill:#2055C2;}
	.st3{fill:#2D6FEF;}
	.st4{fill:#1F2950;}
	.st5{fill:#E30633;}
</style>
<g>
	<g>
		<path class="st0" d="M421.3,85.6c-1.8,0.3-5.6,1.1-9.8,1.1c-8.6,0-13.2-2.2-13.2-13V57.5h-17.8v17.7c0,18.2,10.9,24.5,26.9,24.5
			c7.6,0,12.5-1.1,14.9-1.8c1.1-0.3,1.6-0.6,1.8-1.9c0.3-2.7,0.1-6.6-0.4-9.3C423.5,85.5,422.5,85.4,421.3,85.6z"/>
		<path class="st1" d="M24.5,63.7c0-2.5,0.8-4.7,2.2-6.2c-0.7,0.7-1.1,0.9-2.4,0.9h-4.6c-1,0-1.4-0.5-1.4-1.4V4c0-1.5-0.4-2.1-2-2.4
			c-2-0.4-4.4-0.5-6.9-0.5c-2.5,0-4.9,0.2-6.9,0.5C0.9,1.9,0.6,2.4,0.6,4v92.1c0,1.5,0.4,2.2,2,2.4c2,0.3,4.3,0.5,6.8,0.5
			s4.9-0.2,6.9-0.5c1.6-0.2,2-0.9,2-2.4V70.3c0-1,0.5-1.4,1.4-1.4h4.4c1.4,0,1.8,0.2,2.6,1.1l0.1,0.1c0,0-0.1-0.1-0.1-0.1
			C25.3,68.4,24.5,66.1,24.5,63.7z"/>
		<path class="st1" d="M168.7,65.1c0,15.3,5.6,25.7,16.3,31.1c-0.3-1.9,0-3.8,0.9-5.7c1.7-3.4,5.1-5.4,8.6-5.5
			c-5.4-3.8-7.7-10.7-7.7-20c0-14.4,5.5-23.2,19.7-23.2c1.1,0,2.1,0.1,3.1,0.2c-1.1-2.6-1-5.7,0.5-8.4c0.9-1.6,2.1-2.8,3.5-3.7
			c-2.2-0.2-4.6-0.4-7.1-0.4C181.7,29.6,168.7,41.7,168.7,65.1z"/>
		<path class="st0" d="M210,33.6c-1.5,2.7-1.6,5.8-0.5,8.4c11.9,1.2,16.6,9.7,16.6,23c0,14.4-5.5,23.2-19.7,23.2
			c-5.1,0-9-1.1-12-3.2c-3.6,0.1-7,2.1-8.6,5.5c-0.9,1.8-1.2,3.8-0.9,5.7c5.7,2.9,12.9,4.3,21.5,4.3c24.8,0,37.8-12.1,37.8-35.5
			c0-21.1-10.6-32.9-30.8-35.1C212.1,30.9,210.9,32.1,210,33.6z"/>
		<path class="st2" d="M479.4,85.4c0.4-1.8,1.3-3.5,2.7-5c3.3-3.6,8.4-4.6,12.7-2.9c-1.4-3.4-2-7.6-2-12.5
			c0-14.4,5.5-23.2,19.7-23.2c6.6,0,11.4,1.9,14.5,5.4c0.2-4.3,3.1-8.1,7.5-9.3c2-0.5,4.1-0.4,5.9,0.2c-6.4-5.7-15.7-8.7-27.9-8.7
			c-24.8,0-37.8,12.1-37.8,35.5C474.7,73.2,476.3,80,479.4,85.4z"/>
		<path class="st3" d="M534.5,38.1c-4.4,1.2-7.3,5-7.5,9.3c3.6,4,5.2,10,5.2,17.7c0,14.4-5.5,23.2-19.7,23.2
			c-9.4,0-15-3.9-17.7-10.7c-4.3-1.7-9.4-0.8-12.7,2.9c-1.3,1.5-2.2,3.2-2.7,5c5.8,10,17,15.2,33.1,15.2c24.8,0,37.8-12.1,37.8-35.5
			c0-11.9-3.4-20.9-10-26.8C538.5,37.6,536.5,37.5,534.5,38.1z"/>
		<path class="st3" d="M607.8,29.6c-13.6,0-19.1,5.8-21.3,8c-0.5,0.5-0.7,0.5-1.5,0.5h-0.3c-0.7,0-1-0.2-1.1-0.8l-0.6-4.9
			c-0.2-1.1-0.6-1.4-2-1.7c-1.4-0.2-3.5-0.4-5.8-0.4c-2.4,0-5.2,0.2-6.8,0.4c-1.5,0.2-1.7,0.8-1.7,2.3v63c0,1.5,0.4,2.2,2,2.4
			c2,0.3,4.3,0.5,6.8,0.5s4.9-0.2,6.9-0.5c1.6-0.2,2-0.9,2-2.4V64.9c0-14.6,5-21.9,17-21.9c12,0,15.6,7,15.6,19.4v33.7
			c0,1.5,0.4,2.2,2,2.4c2,0.3,4.3,0.5,6.8,0.5s4.9-0.2,6.9-0.5c1.6-0.2,2-0.9,2-2.4V59.5C634.8,38.4,625.3,29.6,607.8,29.6z"/>
		<path class="st0" d="M71.6,95.2l-28-30.5c-0.4-0.5-0.5-0.8-0.5-1.4v-0.6c0-0.6,0.2-1,0.5-1.4l25-27.3c1.6-1.7,1.7-3-0.7-3.3
			c-1.8-0.2-4.3-0.2-7.1-0.2c-3.2,0-6.4,0.1-8.5,0.3c-2.3,0.2-2.6,0.5-4,2L26.9,57.2c-0.1,0.1-0.2,0.2-0.3,0.3
			c-1.3,1.5-2.2,3.7-2.2,6.2c0,2.5,0.8,4.7,2.2,6.2c0,0,0.1,0.1,0.1,0.1c0,0,0,0,0,0l6,6.8L50,96.3c0.7,0.8,1.2,1.3,1.8,1.6
			c0.6,0.3,1.3,0.4,2.5,0.6c2.2,0.3,5.3,0.3,8.4,0.3c3.2,0,5.8-0.1,8-0.4C72.8,98.1,73.3,97.1,71.6,95.2z"/>
		<path class="st2" d="M440.3,34.1c0-1.5,0.3-2.1,1.9-2.4c2-0.4,4.4-0.5,6.9-0.5c2.5,0,5,0.2,6.9,0.5c1.6,0.3,2,0.8,2,2.4v63
			c0,1.5-0.4,2.2-2,2.4c-2,0.3-4.3,0.5-6.9,0.5c-2.6,0-4.9-0.2-6.9-0.5c-1.6-0.2-2-0.9-2-2.4V34.1z"/>
		<path class="st3" d="M450.4,51C450.4,51,450.5,51,450.4,51c2.9,0,5.6,1,7.6,2.6V34.1c0-1.5-0.4-2-2-2.4c-2-0.4-4.4-0.5-6.9-0.5
			c-2.5,0-4.9,0.2-6.9,0.5c-1.6,0.3-1.9,0.8-1.9,2.4v22.3C442.6,53.2,446.2,51.1,450.4,51z"/>
		<path class="st2" d="M421.2,31.2c-0.2-1.4-0.8-1.6-2.1-1.6h-19.4c-1,0-1.4-0.4-1.4-1.4V12.1c0-1.5-0.4-2.1-2-2.4
			c-2-0.4-4.4-0.5-6.9-0.5c0,0,0,0,0,0s0,0,0,0c-0.6,0-1.2,0-1.7,0c0,0-0.1,0-0.1,0c-0.3,0-0.5,0-0.8,0c-1.3,0.1-2.5,0.2-3.6,0.4
			c-0.2,0-0.5,0.1-0.7,0.1c-1.6,0.3-1.9,0.8-1.9,2.4v0v49.5v14.2c2.2-3.2,5.9-5.4,10.1-5.4c0,0,0.1,0,0.1,0c2.9,0,5.5,1,7.6,2.6
			V44.1c0-0.9,0.5-1.4,1.4-1.4h19.4c1.3,0,1.8-0.2,2.1-1.6c0.2-1.3,0.3-3.2,0.3-5C421.5,34.4,421.5,32.5,421.2,31.2z"/>
		<path class="st3" d="M449.2,0c5.5,0,9.5,4,9.5,9.5s-4,9.5-9.5,9.5s-9.5-4-9.5-9.5S443.7,0,449.2,0z"/>
		<path class="st4" d="M92.6,79.4C92.5,79.4,92.5,79.4,92.6,79.4c-2.9,0-5.6-1-7.6-2.6v19.6c0,1.5,0.4,2,2,2.4
			c2,0.4,4.4,0.5,6.9,0.5c2.5,0,4.9-0.2,6.9-0.5c1.6-0.3,1.9-0.8,1.9-2.4V74C100.4,77.3,96.8,79.4,92.6,79.4z"/>
		<path class="st1" d="M146.2,44.9c-2.7,4.7-8,6.9-13,5.9c1,2.6,1.5,5.9,1.5,10v35.6c0,1.5,0.4,2,2,2.4c2,0.4,4.4,0.5,6.9,0.5
			c2.5,0,4.9-0.2,6.9-0.5c1.6-0.3,1.9-0.8,1.9-2.4V58.1c0-7.8-1.7-13.7-4.6-18C147.6,41.7,147.1,43.4,146.2,44.9z"/>
		<path class="st0" d="M92.5,79.4C92.5,79.4,92.5,79.4,92.5,79.4c4.3,0,7.9-2.2,10.1-5.4V62.4c0-12.2,5.2-19.1,17.1-19.1
			c7.4,0,11.5,2.5,13.5,7.6c5,1,10.3-1.2,13-5.9c0.9-1.5,1.4-3.2,1.6-4.9c-4.8-7.2-13-10.1-22.8-10.1c-8.9,0-15,2.1-20.2,6.8
			c-0.5,0.5-0.7,0.5-1.5,0.5h-0.5c-0.7,0-1-0.2-1.1-0.8l-0.6-3.7c-0.2-1.1-0.6-1.4-2-1.7c-1.2-0.2-3.1-0.3-5-0.4c-0.3,0-0.6,0-0.9,0
			c-2.4,0-4.9,0.2-6.5,0.4c-1.5,0.2-1.7,0.8-1.7,2.3v9.8v33.6C87,78.4,89.6,79.4,92.5,79.4z"/>
		<path class="st2" d="M271.9,96.8c0.5,2,1.5,2.6,3.9,2.6h18.6c2.5,0,3.5-0.6,4-2.6L309,58.9c0.2-0.5,0.3-0.5,0.8-0.5h0.2
			c0.5,0,0.7,0.1,0.8,0.5l9.3,33.5c0-0.2,0-0.4,0-0.6c0-4.1,3.4-7.5,7.5-7.5h6.1c-0.7,0-1-0.1-1.2-0.8l-13.7-49.2
			c-0.5-1.9-0.9-2.2-2.7-2.5c-1.8-0.3-5-0.5-7.5-0.5c-2.7,0-6,0.1-8.1,0.4c-1.8,0.3-2.1,1.1-1.7,2.7l1.4,5.5
			c0.4,1.5,0.4,1.8-0.1,3.4l-11.8,40.1c-0.2,0.8-0.5,0.8-1.2,0.8H286c-0.7,0-1-0.1-1.2-0.8l-12.3-49.1c-0.5-1.9-0.9-2.4-2.7-2.6
			c-2-0.3-4.5-0.5-7.2-0.5c-2.7,0-5.2,0.1-7.1,0.4c-1.8,0.3-2,1.1-1.6,2.7L271.9,96.8z"/>
		<path class="st3" d="M363.9,31.6c-1.7-0.2-4-0.4-6.4-0.4c-2.3,0-4.9,0.2-6.9,0.5c-1.7,0.2-2.2,0.7-2.7,2.6L336.2,81l-0.6,2.4
			c-0.2,0.8-0.5,0.8-1.2,0.8h-0.8h-0.1c0,0,0,0,0,0h-6.1c-4.1,0-7.5,3.4-7.5,7.5c0,0.2,0,0.4,0,0.6l0.6,2.1l0.7,2.4
			c0.5,1.9,1.5,2.6,3.9,2.6c0,0,0.1,0,0.1,0h15.4h2.9c2.4,0,3.4-0.6,3.9-2.6l1.2-4.2l16.7-58.2C365.9,32.8,365.7,31.9,363.9,31.6z"
			/>
		<path class="st5" d="M399.9,29.6l-4.7,0c-3.6,0-6.5,2.9-6.5,6.5c0,3.6,2.9,6.6,6.5,6.6l4.7,0h10.8V29.6H399.9z"/>
		<path class="st3" d="M421.2,31.2c-0.2-1.4-0.8-1.6-2.1-1.6h-19.4v0l-4.7,0c-3.6,0-6.5,2.9-6.5,6.5c0,3.6,2.9,6.6,6.5,6.6l4.7,0v0
			h19.4c1.3,0,1.8-0.2,2.1-1.6c0.2-1.3,0.3-3.2,0.3-5C421.5,34.4,421.5,32.5,421.2,31.2z"/>
		<path class="st0" d="M298.9,70.4c-3.5-1-7.2,0.9-8.2,4.4l-0.9,3.1l0,0l-0.2,0.7h0l-1.4,4.7c-0.2,0.8-0.5,0.8-1.2,0.8H286
			c-0.7,0-1-0.1-1.2-0.8l-12.3-49.1c-0.5-1.9-0.9-2.4-2.7-2.6c-2-0.3-4.5-0.5-7.2-0.5c-2.7,0-5.2,0.1-7.1,0.4
			c-1.8,0.3-2,1.1-1.6,2.7l17.9,62.4c0.5,2,1.5,2.6,3.9,2.6h18.6c2.5,0,3.5-0.6,4-2.6l5-18.1C304.5,75.2,302.3,71.5,298.9,70.4z"/>
	</g>
	<g>
		<path class="st3" d="M26.6,162.8c0,12.3-7,14.6-16.2,14.6c-3.9,0-7.3-0.1-9.4-0.3c-0.6,0-1-0.2-1-0.9v-26.8c0-0.7,0.3-0.9,1-0.9
			h3.4c0,0,4.3-0.2,6-0.2C19.5,148.2,26.6,150.5,26.6,162.8z M4.4,173.1c0,0.4,0.1,0.5,0.5,0.6c1,0.1,2.6,0.3,5.3,0.3
			c8.3,0,11.9-2.4,11.9-11.2c0-8.8-3.7-11.2-11.9-11.2c-2.7,0-4.2,0.1-5.3,0.3c-0.4,0-0.5,0.2-0.5,0.6V173.1z"/>
		<path class="st3" d="M51.9,177c-0.4,0.1-0.8,0.1-1.3,0.1c-0.5,0-1,0-1.4-0.1c-0.4-0.1-0.5-0.1-0.6-0.5l-0.2-1
			c-0.1-0.3-0.1-0.3-0.4-0.3h-0.2c-0.2,0-0.3,0-0.4,0.1c-0.6,0.5-2.2,2.1-6.4,2.1c-5.8,0-10.5-3-10.5-11.2c0-8.2,4.8-11.2,10.5-11.2
			c4.2,0,5.8,1.7,6.4,2.1c0.1,0.1,0.2,0.1,0.4,0.1h0.2c0.2,0,0.3,0,0.4-0.2l0.2-1.2c0.1-0.4,0.2-0.5,0.6-0.5c0.4,0,0.9-0.1,1.4-0.1
			s1,0,1.4,0.1c0.5,0.1,0.6,0.3,0.6,0.7v20.4C52.4,176.8,52.4,176.9,51.9,177z M34.5,166.2c0,4.9,1.8,8,7.1,8c5.2,0,7.1-3.1,7.1-8
			c0-4.9-1.9-8-7.1-8C36.3,158.1,34.5,161.3,34.5,166.2z"/>
		<path class="st3" d="M67.9,158c-2.8,0-5.6,0.5-5.6,2.9c0,2.1,2,2.4,6,3c5.7,0.9,9.4,1.9,9.4,6.8c0,5.5-5.5,6.6-10.5,6.6
			c-3.7,0-7.5-0.7-8.7-1.1c-0.4-0.1-0.5-0.2-0.6-0.7c-0.1-0.7,0-1.7,0.2-2.4c0.1-0.4,0.3-0.5,0.7-0.3c1.2,0.3,4.6,1.3,8.5,1.3
			c3,0,6.1-0.4,6.1-3.1c0-1.9-1-2.6-5.6-3.3c-5.5-0.8-9.7-1.7-9.7-6.6c0-5.4,5.4-6.3,10.1-6.3c3.8,0,7,0.9,7.6,1.1
			c0.4,0.1,0.5,0.3,0.5,0.6c0,0.2,0,0.4,0,0.6c0,0.6,0,1.2-0.2,1.7c-0.1,0.3-0.2,0.4-0.4,0.4c-0.1,0-0.2,0-0.3,0
			C75,159.1,71.2,158,67.9,158z"/>
		<path class="st3" d="M112,170c-0.1,0-0.1,0-0.2,0c-2,0.3-4.5,0.4-7,0.4c-2.5,0-5-0.1-7-0.4c-0.1,0-0.1,0-0.2,0
			c-0.3,0-0.4,0.1-0.5,0.4l-2.5,6.1c-0.2,0.5-0.4,0.5-0.9,0.6c-0.3,0-0.8,0-1.3,0c-0.7,0-1.6,0-2-0.1c-0.3,0-0.5-0.2-0.5-0.4
			c0-0.1,0-0.3,0.1-0.4l11.5-27c0.2-0.6,0.5-0.8,1.3-0.8h4.2c0.7,0,1,0.2,1.3,0.8l11.5,27c0.1,0.2,0.1,0.3,0.1,0.4
			c0,0.2-0.2,0.4-0.5,0.4c-0.5,0-1.3,0.1-2.1,0.1c-0.5,0-1,0-1.3,0c-0.5,0-0.7-0.1-0.9-0.6l-2.4-6.1C112.5,170.1,112.3,170,112,170z
			 M98.7,166.3c0,0.2,0.1,0.3,0.4,0.4c1.6,0.2,3.7,0.3,5.7,0.3c2.1,0,4.1-0.1,5.7-0.3c0.3,0,0.4-0.2,0.4-0.4c0-0.1,0-0.2-0.1-0.3
			l-5.5-13.8c-0.1-0.2-0.2-0.2-0.4-0.2h-0.3c-0.2,0-0.3,0-0.4,0.2l-5.5,13.8C98.7,166.2,98.7,166.2,98.7,166.3z"/>
		<path class="st3" d="M131.9,174c4.6,0,6.2-2.6,6.2-7.6V156c0-0.4,0.1-0.6,0.5-0.7c0.5-0.1,1-0.1,1.6-0.1c0.6,0,1.1,0,1.6,0.1
			c0.4,0.1,0.5,0.2,0.5,0.7v20.4c0,0.5,0,0.6-0.6,0.7c-0.4,0.1-0.8,0.1-1.3,0.1c-0.5,0-1,0-1.4-0.1c-0.4-0.1-0.5-0.1-0.6-0.5
			l-0.2-1.3c0-0.2-0.1-0.2-0.4-0.2h-0.1c-0.2,0-0.3,0-0.5,0.2c-0.5,0.5-2.3,2.3-6.4,2.3c-5,0-8.5-2.4-8.5-8.7V156
			c0-0.4,0.1-0.6,0.5-0.7c0.5-0.1,1-0.1,1.6-0.1s1.1,0,1.6,0.1c0.4,0.1,0.5,0.2,0.5,0.7v11.6C126.5,171.9,127.8,174,131.9,174z"/>
		<path class="st3" d="M153.2,155.3h6.6c0.4,0,0.5,0.1,0.6,0.4c0,0.3,0.1,0.8,0.1,1.2s0,0.9-0.1,1.2c0,0.3-0.2,0.4-0.6,0.4h-6.6
			c-0.3,0-0.5,0.2-0.5,0.4v10.3c0,3.8,1.6,4.5,4.4,4.5c1.4,0,2.6-0.2,3.1-0.3c0.1,0,0.1,0,0.2,0c0.3,0,0.4,0.2,0.4,0.5
			c0.1,0.4,0.1,1,0.1,1.6c0,0.2,0,0.4,0,0.6c0,0.4-0.1,0.5-0.5,0.6c-0.7,0.2-1.9,0.4-4.2,0.4c-4.8,0-7.7-2.1-7.7-7.4v-20.1
			c0-0.4,0.1-0.6,0.5-0.7c0.5-0.1,1-0.1,1.6-0.1c0.6,0,1.1,0,1.6,0.1c0.4,0.1,0.5,0.2,0.5,0.7v5.1
			C152.7,155.2,152.9,155.3,153.2,155.3z"/>
		<path class="st3" d="M163.5,166.2c0-7.2,3.8-11.2,11.4-11.2c7.6,0,11.4,4,11.4,11.2c0,7.1-3.8,11.2-11.4,11.2
			C167.2,177.4,163.5,173.3,163.5,166.2z M182,166.2c0-4.9-1.9-8-7.2-8c-5.3,0-7.2,3.2-7.2,8c0,4.9,1.9,8,7.2,8
			C180.2,174.2,182,171,182,166.2z"/>
		<path class="st3" d="M203,155c0.5,0,0.9,0,1.4,0.1c0.4,0,0.5,0.2,0.5,0.5c0,0.3,0.1,0.9,0.1,1.3c0,0.5,0,1.1-0.1,1.5
			c-0.1,0.3-0.1,0.4-0.5,0.4c-0.4,0-1,0-1.9,0c-4.7,0-6.8,2.6-6.8,7.2v10.5c0,0.4-0.1,0.6-0.5,0.7c-0.5,0.1-1,0.1-1.6,0.1
			s-1.1,0-1.6-0.1c-0.4-0.1-0.5-0.2-0.5-0.7V156c0-0.4,0-0.6,0.6-0.7c0.4,0,0.9-0.1,1.4-0.1c0.5,0,0.9,0,1.4,0.1
			c0.4,0,0.6,0.1,0.7,0.5l0.2,1.8c0,0.2,0.1,0.3,0.3,0.3h0.1c0.2,0,0.3,0,0.4-0.1C197.5,156.3,199.3,155,203,155z"/>
		<path class="st3" d="M211.3,168.1c0.3,4.6,4,6,8.3,6c3.4,0,6.5-1.1,7.2-1.4c0.1,0,0.2,0,0.3,0c0.2,0,0.4,0.1,0.4,0.4
			c0.1,0.5,0.2,1.3,0.2,2c0,0.7,0,0.8-0.6,1.1c-0.7,0.3-3.5,1.3-7.6,1.3c-7.4,0-12.6-2.7-12.6-11.2c0-6.8,3.3-11.2,11.1-11.2
			c7.3,0,11.1,3.5,11.1,10.4c0,0.7,0,1.4-0.1,1.8c0,0.4-0.2,0.5-0.6,0.5h-16.6C211.4,167.6,211.3,167.7,211.3,168.1z M211.2,164.2
			c0,0.3,0.1,0.4,0.5,0.4h12.6c0.3,0,0.5-0.1,0.5-0.5c0-4-2.3-6.1-6.7-6.1C213.8,158,211.5,160,211.2,164.2L211.2,164.2z"/>
		<path class="st3" d="M254.6,164.1v12.3c0,0.4-0.1,0.6-0.5,0.7c-0.5,0.1-1,0.1-1.6,0.1c-0.6,0-1.1,0-1.6-0.1
			c-0.4-0.1-0.5-0.2-0.5-0.7v-11.3c0-4.4-1.3-6.7-5.6-6.7c-4.2,0-6.3,2.8-6.3,7.6v10.5c0,0.4-0.1,0.6-0.5,0.7
			c-0.5,0.1-1,0.1-1.6,0.1c-0.6,0-1.1,0-1.6-0.1c-0.4-0.1-0.5-0.2-0.5-0.7V156c0-0.4,0-0.6,0.6-0.7c0.4,0,0.9-0.1,1.4-0.1
			c0.5,0,0.9,0,1.4,0.1c0.4,0,0.6,0.1,0.7,0.5l0.2,1.6c0,0.2,0.1,0.3,0.3,0.3h0.1c0.1,0,0.2,0,0.3-0.1c0.9-0.9,2.6-2.5,6.8-2.5
			C251.5,155,254.6,157.7,254.6,164.1z"/>
		<path class="st3" d="M265.8,155.3h6.6c0.4,0,0.5,0.1,0.6,0.4c0,0.3,0.1,0.8,0.1,1.2s0,0.9-0.1,1.2c0,0.3-0.2,0.4-0.6,0.4h-6.6
			c-0.3,0-0.5,0.2-0.5,0.4v10.3c0,3.8,1.6,4.5,4.4,4.5c1.4,0,2.6-0.2,3.1-0.3c0.1,0,0.1,0,0.2,0c0.3,0,0.4,0.2,0.4,0.5
			c0.1,0.4,0.1,1,0.1,1.6c0,0.2,0,0.4,0,0.6c0,0.4-0.1,0.5-0.5,0.6c-0.7,0.2-1.9,0.4-4.2,0.4c-4.8,0-7.7-2.1-7.7-7.4v-20.1
			c0-0.4,0.1-0.6,0.5-0.7c0.5-0.1,1-0.1,1.6-0.1s1.1,0,1.6,0.1c0.4,0.1,0.5,0.2,0.5,0.7v5.1C265.4,155.2,265.5,155.3,265.8,155.3z"
			/>
		<path class="st3" d="M276.6,166.2c0-7.2,3.8-11.2,11.4-11.2c7.6,0,11.4,4,11.4,11.2c0,7.1-3.8,11.2-11.4,11.2
			C280.4,177.4,276.6,173.3,276.6,166.2z M295.2,166.2c0-4.9-1.9-8-7.2-8s-7.2,3.2-7.2,8c0,4.9,1.9,8,7.2,8S295.2,171,295.2,166.2z"
			/>
		<path class="st3" d="M302.9,166.2c0-7.2,3.8-11.2,11.4-11.2c7.6,0,11.4,4,11.4,11.2c0,7.1-3.8,11.2-11.4,11.2
			C306.7,177.4,302.9,173.3,302.9,166.2z M321.5,166.2c0-4.9-1.9-8-7.2-8s-7.2,3.2-7.2,8c0,4.9,1.9,8,7.2,8S321.5,171,321.5,166.2z"
			/>
		<path class="st3" d="M335.1,173.7h1.7c0.4,0,0.5,0.1,0.6,0.4c0,0.3,0.1,0.8,0.1,1.2s0,0.9-0.1,1.2c0,0.3-0.2,0.4-0.6,0.4h-2.1
			c-2.9,0-4.2-0.4-4.2-3.7v-26.8c0-0.4,0.1-0.6,0.5-0.7c0.5-0.1,1-0.1,1.6-0.1c0.6,0,1.1,0,1.6,0.1c0.4,0.1,0.5,0.2,0.5,0.7v26.7
			C334.7,173.5,334.8,173.7,335.1,173.7z"/>
		<path class="st3" d="M348.5,175c0,3.6-2.4,5.7-6.1,6.2c-0.2,0-0.3,0-0.3-0.2c-0.1-0.5-0.2-1.2-0.1-1.7c0-0.2,0-0.3,0.3-0.3
			c1.1-0.2,2.4-0.6,2.9-1.7c0.1-0.2,0-0.3-0.2-0.4c-0.6-0.1-2.3-0.5-2.3-2.4c0-1.9,1.3-2.7,2.9-2.7
			C347.3,171.8,348.5,173.1,348.5,175z"/>
		<path class="st3" d="M378.6,175.1h-0.2c-0.2,0-0.3,0-0.4,0.1c-0.6,0.5-2.1,2.1-6.4,2.1c-5.8,0-10.5-2.8-10.5-11
			c0-8.2,4.7-11.4,10.4-11.4c4.3,0,5.9,1.5,6.7,2c0.2,0.1,0.2,0.1,0.4,0.1h0.2c0.3,0,0.3,0,0.3-0.3v-10.3c0-0.4,0.1-0.6,0.5-0.7
			c0.5-0.1,1-0.1,1.6-0.1c0.6,0,1.1,0,1.6,0.1c0.4,0.1,0.5,0.2,0.5,0.7v29.8c0,0.5,0,0.6-0.6,0.7c-0.4,0.1-0.8,0.1-1.3,0.1
			c-0.5,0-1,0-1.4-0.1c-0.4-0.1-0.5-0.1-0.6-0.5l-0.2-1.1C379,175.1,378.9,175.1,378.6,175.1z M365.3,166.2c0,4.9,1.8,8,7.1,8
			c5.2,0,7.1-3.1,7.1-8c0-4.9-1.9-8-7.1-8C367.1,158.1,365.3,161.3,365.3,166.2z"/>
		<path class="st3" d="M410.3,177c-0.4,0.1-0.8,0.1-1.3,0.1c-0.5,0-1,0-1.4-0.1c-0.4-0.1-0.5-0.1-0.6-0.5l-0.2-1
			c-0.1-0.3-0.1-0.3-0.4-0.3h-0.2c-0.2,0-0.3,0-0.4,0.1c-0.6,0.5-2.2,2.1-6.4,2.1c-5.8,0-10.5-3-10.5-11.2c0-8.2,4.8-11.2,10.5-11.2
			c4.2,0,5.8,1.7,6.4,2.1c0.1,0.1,0.2,0.1,0.4,0.1h0.2c0.2,0,0.3,0,0.4-0.2l0.2-1.2c0.1-0.4,0.2-0.5,0.6-0.5c0.4,0,0.9-0.1,1.4-0.1
			c0.5,0,1,0,1.4,0.1c0.5,0.1,0.6,0.3,0.6,0.7v20.4C410.9,176.8,410.8,176.9,410.3,177z M392.9,166.2c0,4.9,1.8,8,7.1,8
			c5.2,0,7.1-3.1,7.1-8c0-4.9-1.9-8-7.1-8C394.8,158.1,392.9,161.3,392.9,166.2z"/>
		<path class="st3" d="M426.3,158c-2.8,0-5.6,0.5-5.6,2.9c0,2.1,2,2.4,6,3c5.7,0.9,9.4,1.9,9.4,6.8c0,5.5-5.5,6.6-10.5,6.6
			c-3.7,0-7.5-0.7-8.7-1.1c-0.4-0.1-0.5-0.2-0.6-0.7c-0.1-0.7,0-1.7,0.2-2.4c0.1-0.4,0.3-0.5,0.7-0.3c1.2,0.3,4.6,1.3,8.5,1.3
			c3,0,6.1-0.4,6.1-3.1c0-1.9-1-2.6-5.6-3.3c-5.5-0.8-9.7-1.7-9.7-6.6c0-5.4,5.4-6.3,10.1-6.3c3.8,0,7,0.9,7.6,1.1
			c0.4,0.1,0.5,0.3,0.5,0.6c0,0.2,0,0.4,0,0.6c0,0.6,0,1.2-0.2,1.7c-0.1,0.3-0.2,0.4-0.4,0.4c-0.1,0-0.2,0-0.3,0
			C433.4,159.1,429.6,158,426.3,158z"/>
		<path class="st3" d="M462.2,155c3.6,0,5.4,1.6,6.6,3.1c0.1,0.2,0.2,0.2,0.4,0.2h0.1c0.2,0,0.2,0,0.4-0.2c1.7-2,4-3.2,7.5-3.2
			c5.5,0,8.3,2.7,8.3,8.7v12.7c0,0.4-0.1,0.6-0.5,0.7c-0.5,0.1-1,0.1-1.6,0.1c-0.6,0-1.1,0-1.6-0.1c-0.4-0.1-0.5-0.2-0.5-0.7v-11.8
			c0-4.1-1.2-6.2-5.2-6.2c-3.9,0-5.8,2.6-5.8,7.1v11c0,0.4-0.1,0.6-0.5,0.7c-0.5,0.1-1,0.1-1.6,0.1c-0.6,0-1.1,0-1.6-0.1
			c-0.4-0.1-0.5-0.2-0.5-0.7v-11.8c0-4.1-1.2-6.2-5.2-6.2c-3.9,0-5.8,2.6-5.8,7.1v11c0,0.4-0.1,0.6-0.5,0.7c-0.5,0.1-1,0.1-1.6,0.1
			c-0.6,0-1.1,0-1.6-0.1c-0.4-0.1-0.5-0.2-0.5-0.7V156c0-0.4,0-0.6,0.6-0.7c0.4,0,0.9-0.1,1.4-0.1c0.5,0,0.9,0,1.4,0.1
			c0.4,0,0.6,0.1,0.7,0.5l0.2,1.6c0,0.2,0.1,0.3,0.3,0.3h0.1c0.2,0,0.3,0,0.4-0.1C456.5,156.8,458.2,155,462.2,155z"/>
		<path class="st3" d="M494.3,150.5c-1.4,0-2.5-1-2.5-2.4c0-1.4,1-2.4,2.5-2.4c1.4,0,2.5,1.1,2.5,2.4
			C496.8,149.5,495.7,150.5,494.3,150.5z M492.2,156c0-0.4,0.1-0.6,0.5-0.7c0.5-0.1,1-0.1,1.6-0.1c0.6,0,1.1,0,1.6,0.1
			c0.4,0.1,0.5,0.2,0.5,0.7v20.4c0,0.4-0.1,0.6-0.5,0.7c-0.5,0.1-1,0.1-1.6,0.1c-0.6,0-1.1,0-1.6-0.1c-0.4-0.1-0.5-0.2-0.5-0.7V156z
			"/>
		<path class="st3" d="M508.3,155.3h6.6c0.4,0,0.5,0.1,0.6,0.4c0,0.3,0.1,0.8,0.1,1.2s0,0.9-0.1,1.2c0,0.3-0.2,0.4-0.6,0.4h-6.6
			c-0.3,0-0.5,0.2-0.5,0.4v10.3c0,3.8,1.6,4.5,4.4,4.5c1.4,0,2.6-0.2,3.1-0.3c0.1,0,0.1,0,0.2,0c0.3,0,0.4,0.2,0.4,0.5
			c0.1,0.4,0.1,1,0.1,1.6c0,0.2,0,0.4,0,0.6c0,0.4-0.1,0.5-0.5,0.6c-0.7,0.2-1.9,0.4-4.2,0.4c-4.8,0-7.7-2.1-7.7-7.4v-20.1
			c0-0.4,0.1-0.6,0.5-0.7c0.5-0.1,1-0.1,1.6-0.1c0.6,0,1.1,0,1.6,0.1c0.4,0.1,0.5,0.2,0.5,0.7v5.1
			C507.8,155.2,507.9,155.3,508.3,155.3z"/>
		<path class="st3" d="M536.1,175.1h-0.2c-0.2,0-0.3,0-0.4,0.1c-0.6,0.5-2.1,2.1-6.4,2.1c-5.8,0-10.5-2.8-10.5-11
			c0-8.2,4.7-11.4,10.4-11.4c4.3,0,5.9,1.5,6.7,2c0.2,0.1,0.2,0.1,0.4,0.1h0.2c0.3,0,0.3,0,0.3-0.3v-10.3c0-0.4,0.1-0.6,0.5-0.7
			c0.5-0.1,1-0.1,1.6-0.1c0.6,0,1.1,0,1.6,0.1c0.4,0.1,0.5,0.2,0.5,0.7v29.8c0,0.5,0,0.6-0.6,0.7c-0.4,0.1-0.8,0.1-1.3,0.1
			s-1,0-1.4-0.1c-0.4-0.1-0.5-0.1-0.6-0.5l-0.2-1.1C536.4,175.1,536.3,175.1,536.1,175.1z M522.7,166.2c0,4.9,1.8,8,7.1,8
			c5.2,0,7.1-3.1,7.1-8c0-4.9-1.9-8-7.1-8C524.6,158.1,522.7,161.3,522.7,166.2z"/>
		<path class="st3" d="M550.6,168.1c0.3,4.6,4,6,8.3,6c3.4,0,6.5-1.1,7.2-1.4c0.1,0,0.2,0,0.3,0c0.2,0,0.4,0.1,0.4,0.4
			c0.1,0.5,0.2,1.3,0.2,2c0,0.7,0,0.8-0.6,1.1c-0.7,0.3-3.5,1.3-7.6,1.3c-7.4,0-12.6-2.7-12.6-11.2c0-6.8,3.3-11.2,11.1-11.2
			c7.3,0,11.1,3.5,11.1,10.4c0,0.7,0,1.4-0.1,1.8c0,0.4-0.2,0.5-0.6,0.5h-16.6C550.7,167.6,550.6,167.7,550.6,168.1z M550.5,164.2
			c0,0.3,0.1,0.4,0.5,0.4h12.6c0.3,0,0.5-0.1,0.5-0.5c0-4-2.3-6.1-6.7-6.1C553.1,158,550.8,160,550.5,164.2L550.5,164.2z"/>
		<path class="st3" d="M593.9,164.1v12.3c0,0.4-0.1,0.6-0.5,0.7c-0.5,0.1-1,0.1-1.6,0.1c-0.6,0-1.1,0-1.6-0.1
			c-0.4-0.1-0.5-0.2-0.5-0.7v-11.3c0-4.4-1.3-6.7-5.6-6.7c-4.2,0-6.3,2.8-6.3,7.6v10.5c0,0.4-0.1,0.6-0.5,0.7
			c-0.5,0.1-1,0.1-1.6,0.1c-0.6,0-1.1,0-1.6-0.1c-0.4-0.1-0.5-0.2-0.5-0.7V156c0-0.4,0-0.6,0.6-0.7c0.4,0,0.9-0.1,1.4-0.1
			c0.5,0,0.9,0,1.4,0.1c0.4,0,0.6,0.1,0.7,0.5l0.2,1.6c0,0.2,0.1,0.3,0.3,0.3h0.1c0.1,0,0.2,0,0.3-0.1c0.9-0.9,2.6-2.5,6.8-2.5
			C590.8,155,593.9,157.7,593.9,164.1z"/>
		<path class="st3" d="M604.1,176.4c0,0.4-0.1,0.6-0.5,0.7c-0.5,0.1-1,0.1-1.6,0.1c-0.6,0-1.1,0-1.6-0.1c-0.4-0.1-0.5-0.2-0.5-0.7
			v-29.8c0-0.4,0.1-0.6,0.5-0.7c0.5-0.1,1-0.1,1.6-0.1c0.6,0,1.1,0,1.6,0.1c0.4,0.1,0.5,0.2,0.5,0.7V164c0,0.3,0.1,0.4,0.5,0.4h1.4
			c0.5,0,0.7-0.1,0.9-0.3l7.5-8.2c0.4-0.4,0.5-0.5,1.1-0.5c0.5,0,1.2-0.1,1.9-0.1c0.6,0,1.4,0,1.9,0.1c0.5,0.1,0.6,0.4,0.1,0.9
			l-8.5,9.1c-0.1,0.1-0.1,0.2-0.1,0.3v0.2c0,0.1,0,0.2,0.1,0.3l9.7,10c0.5,0.5,0.3,0.8-0.1,0.9c-0.6,0.1-1.2,0.1-2.1,0.1
			c-0.7,0-1.5,0-1.9-0.1c-0.7-0.1-0.8-0.1-1.2-0.5l-8.3-8.8c-0.2-0.3-0.4-0.3-0.9-0.3h-1.5c-0.3,0-0.5,0.1-0.5,0.4V176.4z"/>
		<path class="st3" d="M628.7,155.3h6.6c0.4,0,0.5,0.1,0.6,0.4c0,0.3,0.1,0.8,0.1,1.2s0,0.9-0.1,1.2c0,0.3-0.2,0.4-0.6,0.4h-6.6
			c-0.3,0-0.5,0.2-0.5,0.4v10.3c0,3.8,1.6,4.5,4.4,4.5c1.4,0,2.6-0.2,3.1-0.3c0.1,0,0.1,0,0.2,0c0.3,0,0.4,0.2,0.4,0.5
			c0.1,0.4,0.1,1,0.1,1.6c0,0.2,0,0.4,0,0.6c0,0.4-0.1,0.5-0.5,0.6c-0.7,0.2-1.9,0.4-4.2,0.4c-4.8,0-7.7-2.1-7.7-7.4v-20.1
			c0-0.4,0.1-0.6,0.5-0.7c0.5-0.1,1-0.1,1.6-0.1c0.6,0,1.1,0,1.6,0.1c0.4,0.1,0.5,0.2,0.5,0.7v5.1
			C628.3,155.2,628.4,155.3,628.7,155.3z"/>
	</g>
</g>
</svg>
