<?xml version="1.0" encoding="UTF-8"?>
<svg id="a" data-name="Ebene 1" xmlns="http://www.w3.org/2000/svg" width="250" height="59" viewBox="0 0 250 59">
  <g>
    <path d="m85.316,11.145c.419,0,.785-.127,1.099-.381.312-.254.486-.571.52-.952h1.111c-.021.394-.156.768-.406,1.124s-.583.639-1,.851-.857.317-1.323.317c-.936,0-1.679-.312-2.231-.937-.552-.624-.828-1.478-.828-2.561v-.197c0-.668.123-1.263.368-1.784s.598-.925,1.057-1.212,1.002-.432,1.628-.432c.771,0,1.411.23,1.921.692s.781,1.06.815,1.796h-1.111c-.033-.444-.201-.81-.504-1.095-.303-.286-.676-.429-1.121-.429-.596,0-1.059.215-1.387.645-.328.429-.492,1.05-.492,1.863v.222c0,.792.163,1.401.489,1.828s.791.641,1.396.641Z" fill="#fff"/>
    <path d="m93.986,6.162c-.178-.03-.371-.044-.578-.044-.771,0-1.293.328-1.568.984v4.875h-1.174v-6.868h1.143l.02.793c.385-.614.931-.92,1.637-.92.229,0,.402.03.521.089v1.092Z" fill="#fff"/>
    <path d="m99.093,12.104c-.931,0-1.688-.306-2.271-.917-.584-.612-.877-1.43-.877-2.454v-.216c0-.681.131-1.29.391-1.825.261-.536.624-.955,1.092-1.257.468-.303.975-.454,1.521-.454.893,0,1.587.294,2.082.882s.743,1.43.743,2.526v.489h-4.653c.017.677.215,1.224.594,1.641.379.417.86.625,1.444.625.414,0,.766-.084,1.053-.254.288-.169.54-.394.756-.673l.717.559c-.575.884-1.438,1.327-2.59,1.327Zm-.146-6.157c-.474,0-.872.172-1.193.518-.321.345-.521.828-.597,1.45h3.44v-.089c-.034-.597-.194-1.059-.482-1.387-.288-.328-.677-.492-1.168-.492Z" fill="#fff"/>
    <path d="m108.671,11.977c-.067-.135-.123-.376-.165-.724-.546.567-1.197.851-1.955.851-.677,0-1.232-.191-1.666-.574-.434-.383-.651-.869-.651-1.457,0-.715.272-1.271.816-1.666.544-.396,1.309-.594,2.295-.594h1.143v-.54c0-.411-.123-.737-.369-.981-.245-.243-.606-.365-1.085-.365-.419,0-.771.106-1.054.317s-.426.468-.426.768h-1.18c0-.343.121-.674.364-.993.243-.32.573-.573.99-.759s.875-.279,1.374-.279c.792,0,1.412.198,1.86.594.448.396.682.94.698,1.634v3.161c0,.63.08,1.132.241,1.504v.102h-1.231Zm-1.949-.895c.369,0,.718-.095,1.048-.286s.569-.438.718-.743v-1.409h-.921c-1.438,0-2.158.421-2.158,1.263,0,.368.123.656.368.863s.561.311.945.311Z" fill="#fff"/>
    <path d="m114.396,3.445v1.663h1.281v.908h-1.281v4.265c0,.275.057.482.171.62s.309.207.584.207c.136,0,.321-.025.559-.076v.947c-.309.084-.609.126-.901.126-.524,0-.92-.159-1.188-.476-.266-.317-.399-.768-.399-1.352v-4.259h-1.251v-.908h1.251v-1.663h1.175Z" fill="#fff"/>
    <path d="m121.199,12.104c-.931,0-1.688-.306-2.271-.917-.584-.612-.877-1.43-.877-2.454v-.216c0-.681.131-1.29.391-1.825.261-.536.624-.955,1.092-1.257.468-.303.975-.454,1.521-.454.893,0,1.587.294,2.082.882s.743,1.43.743,2.526v.489h-4.653c.017.677.215,1.224.594,1.641.379.417.86.625,1.444.625.414,0,.766-.084,1.053-.254.288-.169.54-.394.756-.673l.717.559c-.575.884-1.438,1.327-2.59,1.327Zm-.146-6.157c-.474,0-.872.172-1.193.518-.321.345-.521.828-.597,1.45h3.44v-.089c-.034-.597-.194-1.059-.482-1.387-.288-.328-.677-.492-1.168-.492Z" fill="#fff"/>
    <path d="m126.252,8.485c0-1.054.249-1.901.748-2.542.5-.642,1.153-.962,1.962-.962.804,0,1.44.275,1.911.825v-3.58h1.174v9.75h-1.079l-.058-.736c-.469.576-1.123.863-1.961.863-.796,0-1.444-.326-1.945-.978-.502-.652-.752-1.502-.752-2.552v-.089Zm1.174.133c0,.779.161,1.388.482,1.828s.766.66,1.333.66c.745,0,1.288-.334,1.632-1.003v-3.155c-.352-.647-.892-.971-1.619-.971-.575,0-1.024.222-1.346.667s-.482,1.103-.482,1.974Z" fill="#fff"/>
    <path d="m145.767,10.358l1.32-5.25h1.175l-2,6.868h-.952l-1.669-5.205-1.625,5.205h-.953l-1.992-6.868h1.168l1.352,5.142,1.6-5.142h.945l1.632,5.25Z" fill="#fff"/>
    <path d="m150.761,3.287c0-.19.059-.351.175-.482s.289-.197.518-.197.402.065.521.197.178.292.178.482-.06.349-.178.476-.292.19-.521.19-.401-.063-.518-.19-.175-.286-.175-.476Zm1.27,8.69h-1.174v-6.868h1.174v6.868Z" fill="#fff"/>
    <path d="m156.803,3.445v1.663h1.281v.908h-1.281v4.265c0,.275.057.482.171.62s.309.207.584.207c.136,0,.321-.025.559-.076v.947c-.309.084-.609.126-.901.126-.524,0-.92-.159-1.188-.476-.266-.317-.399-.768-.399-1.352v-4.259h-1.251v-.908h1.251v-1.663h1.175Z" fill="#fff"/>
    <path d="m161.93,5.94c.521-.639,1.198-.958,2.031-.958,1.452,0,2.184.819,2.197,2.457v4.539h-1.175v-4.545c-.004-.495-.117-.861-.34-1.098-.222-.237-.567-.355-1.038-.355-.381,0-.715.102-1.002.305-.288.203-.513.47-.674.8v4.894h-1.174V2.227h1.174v3.713Z" fill="#fff"/>
  </g>
  <g>
    <path d="m40.68,30.377c0-.635.212-1.157.638-1.567.424-.41,1.003-.615,1.735-.615.723,0,1.299.205,1.729.615s.645.933.645,1.567c0,.645-.218,1.172-.651,1.582-.436.41-1.009.615-1.722.615s-1.287-.205-1.722-.615-.651-.938-.651-1.582Zm4.497,19.951h-4.248v-15.85h4.248v15.85Z" fill="#fff"/>
    <path d="m53.215,34.479l.132,1.772c1.123-1.377,2.642-2.065,4.556-2.065,2.041,0,3.442.806,4.204,2.417,1.113-1.611,2.7-2.417,4.761-2.417,1.719,0,2.998.501,3.838,1.502s1.26,2.507,1.26,4.519v10.122h-4.248v-10.107c0-.898-.176-1.555-.527-1.97s-.972-.623-1.86-.623c-1.27,0-2.148.605-2.637,1.816l.015,10.884h-4.233v-10.093c0-.918-.181-1.582-.542-1.992s-.977-.615-1.846-.615c-1.201,0-2.07.498-2.607,1.494v11.206h-4.233v-15.85h3.97Z" fill="#fff"/>
    <path d="m82.424,47.208c.781,0,1.416-.215,1.904-.645s.742-1.001.762-1.714h3.97c-.01,1.074-.303,2.059-.879,2.952s-1.365,1.587-2.365,2.08c-1.002.493-2.107.739-3.318.739-2.266,0-4.053-.72-5.361-2.16s-1.963-3.431-1.963-5.97v-.278c0-2.441.649-4.39,1.948-5.845s3.081-2.183,5.347-2.183c1.982,0,3.571.564,4.768,1.692s1.805,2.629,1.824,4.504h-3.97c-.02-.824-.273-1.494-.762-2.01s-1.133-.773-1.934-.773c-.986,0-1.731.359-2.233,1.078-.504.72-.755,1.886-.755,3.499v.44c0,1.634.249,2.808.747,3.521s1.255,1.07,2.271,1.07Z" fill="#fff"/>
    <path d="m113.558,41.085h-8.438v5.713h9.902v3.53h-14.297v-21.328h14.268v3.56h-9.873v5.083h8.438v3.442Z" fill="#fff"/>
    <path d="m124.596,39.21l2.666-4.731h4.526l-4.512,7.764,4.702,8.086h-4.541l-2.827-4.98-2.812,4.98h-4.556l4.702-8.086-4.497-7.764h4.541l2.607,4.731Z" fill="#fff"/>
    <path d="m148.744,42.55c0,2.441-.555,4.397-1.663,5.867s-2.604,2.204-4.489,2.204c-1.602,0-2.896-.557-3.882-1.67v7.471h-4.233v-21.943h3.926l.146,1.553c1.025-1.23,2.363-1.846,4.014-1.846,1.953,0,3.472.723,4.556,2.168s1.626,3.438,1.626,5.977v.22Zm-4.233-.308c0-1.475-.262-2.612-.783-3.413-.523-.801-1.282-1.201-2.278-1.201-1.328,0-2.241.508-2.739,1.523v6.489c.518,1.045,1.44,1.567,2.769,1.567,2.021,0,3.032-1.655,3.032-4.966Z" fill="#fff"/>
    <path d="m160.962,38.448c-.576-.078-1.084-.117-1.523-.117-1.602,0-2.651.542-3.149,1.626v10.371h-4.233v-15.85h3.999l.117,1.89c.85-1.455,2.026-2.183,3.53-2.183.469,0,.908.063,1.318.19l-.059,4.072Z" fill="#fff"/>
    <path d="m170.851,50.621c-2.324,0-4.217-.713-5.677-2.139s-2.189-3.325-2.189-5.698v-.41c0-1.592.308-3.015.923-4.27s1.487-2.222,2.614-2.9c1.129-.679,2.415-1.019,3.86-1.019,2.168,0,3.874.684,5.12,2.051,1.244,1.367,1.867,3.306,1.867,5.815v1.729h-10.093c.137,1.035.55,1.865,1.237,2.49.689.625,1.561.938,2.615.938,1.631,0,2.905-.591,3.823-1.772l2.08,2.329c-.635.898-1.494,1.6-2.578,2.103s-2.285.754-3.604.754Zm-.483-13.022c-.84,0-1.521.285-2.043.854-.523.569-.857,1.384-1.004,2.442h5.889v-.338c-.02-.942-.273-1.67-.762-2.186-.488-.515-1.182-.772-2.08-.772Z" fill="#fff"/>
    <path d="m188.914,45.948c0-.518-.257-.925-.769-1.223-.514-.298-1.336-.564-2.469-.799-3.77-.791-5.654-2.393-5.654-4.805,0-1.406.583-2.58,1.75-3.522s2.693-1.414,4.578-1.414c2.012,0,3.62.474,4.826,1.421s1.81,2.178,1.81,3.691h-4.233c0-.605-.195-1.105-.586-1.501s-1.001-.594-1.831-.594c-.713,0-1.265.161-1.655.483s-.586.732-.586,1.23c0,.469.222.848.666,1.136s1.194.537,2.249.747,1.943.446,2.666.71c2.236.82,3.354,2.241,3.354,4.263,0,1.445-.62,2.615-1.86,3.509s-2.842,1.34-4.805,1.34c-1.328,0-2.508-.236-3.538-.71s-1.838-1.123-2.424-1.948-.879-1.717-.879-2.674h4.014c.039.752.317,1.328.835,1.729s1.211.601,2.08.601c.811,0,1.423-.153,1.839-.461.414-.308.622-.711.622-1.209Z" fill="#fff"/>
    <path d="m204.951,45.948c0-.518-.257-.925-.769-1.223-.514-.298-1.336-.564-2.469-.799-3.77-.791-5.654-2.393-5.654-4.805,0-1.406.583-2.58,1.75-3.522s2.693-1.414,4.578-1.414c2.012,0,3.62.474,4.826,1.421s1.81,2.178,1.81,3.691h-4.233c0-.605-.195-1.105-.586-1.501s-1.001-.594-1.831-.594c-.713,0-1.265.161-1.655.483s-.586.732-.586,1.23c0,.469.222.848.666,1.136s1.194.537,2.249.747,1.943.446,2.666.71c2.236.82,3.354,2.241,3.354,4.263,0,1.445-.62,2.615-1.86,3.509s-2.842,1.34-4.805,1.34c-1.328,0-2.508-.236-3.538-.71s-1.838-1.123-2.424-1.948-.879-1.717-.879-2.674h4.014c.039.752.317,1.328.835,1.729s1.211.601,2.08.601c.811,0,1.423-.153,1.839-.461.414-.308.622-.711.622-1.209Z" fill="#fff"/>
  </g>
</svg>