<svg xmlns="http://www.w3.org/2000/svg" width="22.951" height="22.951" viewBox="0 0 22.951 22.951"><g transform="translate(-98.909 2144.75)"><g transform="translate(104.322 -2144)"><path d="M214.13,693.274a.75.75,0,0,1-.5-.2l-5.13-4.663a.75.75,0,1,1,1.009-1.11l4.56,4.145,11.156-12.94a.75.75,0,1,1,1.136.979L214.7,693.013a.75.75,0,0,1-.523.259Z" transform="translate(-209 -679)" fill="#76be45"/></g><path d="M208.793,703.336a10.543,10.543,0,1,1,0-21.086,9.216,9.216,0,0,1,4.036.788.75.75,0,1,1-.612,1.37,7.731,7.731,0,0,0-3.425-.658,9.043,9.043,0,1,0,9.043,9.043,7.355,7.355,0,0,0-.457-2.562.75.75,0,1,1,1.424-.472,8.788,8.788,0,0,1,.533,3.034,10.543,10.543,0,0,1-10.543,10.543Z" transform="translate(-99.342 -2825.135)" fill="#76be45"/></g></svg>