<?xml version="1.0" encoding="UTF-8"?><svg id="a" xmlns="http://www.w3.org/2000/svg" viewBox="0 0 538 605"><defs><style>.b{fill:#f2f5f7;}.c{fill:#d8e4eb;}.d{fill:none;stroke:#bcccd4;stroke-linecap:round;stroke-miterlimit:10;stroke-width:1.48px;}</style></defs><rect class="b" x="0" width="538" height="605"/><g><path class="d" d="M172.99,380.45h-23.1c-4.47,0-7.98-3.66-7.79-8.13l6.02-146.24c.18-4.47,3.99-8.13,8.46-8.13h175.64"/><path class="d" d="M154.53,265.8l1.32-31.97c.18-4.47,3.99-8.13,8.46-8.13l83.09-.07"/><path class="d" d="M360.22,217.96h24.27c4.47,0,7.98,3.66,7.79,8.13l-6.02,146.24c-.18,4.47-3.99,8.13-8.46,8.13H190.68"/><path class="d" d="M395.91,311.49l-2.89,63.46c-.27,6.65-5.94,12.09-12.59,12.09h-56.75"/><path class="d" d="M236.43,285.1c-3.84-4.27-6.06-10.02-5.8-16.35,.54-13.2,11.68-23.89,24.88-23.89s23.45,10.7,22.91,23.89c-.54,13.2-11.68,23.89-24.88,23.89-4.53,0-8.71-1.26-12.22-3.45"/><path class="c" d="M155.22,374.58h217.86c4.27,0,7.91-3.87,8.09-8.61l.67-17.97c0-19.55-16.68-46.07-20.06-53.4-18.26-39.55-52.53-38.48-71.68,7.81-12.22,29.53-43.04,35.32-60.11,12.49-16.63-22.24-33.94-21.85-51.33,3.64-4.33,6.35-14.8,22.34-27.7,38.76-1.95,2.48-3.07,5.52-3.18,8.67h0c-.18,4.73,3.18,8.61,7.45,8.61Z"/></g></svg>