<svg xmlns="http://www.w3.org/2000/svg" width="7.724" height="29.5" viewBox="0 0 7.724 29.5"><g transform="translate(-106.163 2343.75)"><g transform="translate(106.913 -2343)"><path d="M3.112-.75A3.811,3.811,0,0,1,6.974,3,3.811,3.811,0,0,1,3.112,6.75,3.811,3.811,0,0,1-.75,3,3.811,3.811,0,0,1,3.112-.75Zm0,6A2.311,2.311,0,0,0,5.474,3,2.311,2.311,0,0,0,3.112.75,2.311,2.311,0,0,0,.75,3,2.311,2.311,0,0,0,3.112,5.25Z" fill="#707070"/></g><g transform="translate(106.913 -2332)"><path d="M3.112-.75A3.811,3.811,0,0,1,6.974,3,3.811,3.811,0,0,1,3.112,6.75,3.811,3.811,0,0,1-.75,3,3.811,3.811,0,0,1,3.112-.75Zm0,6A2.311,2.311,0,0,0,5.474,3,2.311,2.311,0,0,0,3.112.75,2.311,2.311,0,0,0,.75,3,2.311,2.311,0,0,0,3.112,5.25Z" fill="#707070"/></g><g transform="translate(106.913 -2321)"><path d="M3.112-.75A3.811,3.811,0,0,1,6.974,3,3.811,3.811,0,0,1,3.112,6.75,3.811,3.811,0,0,1-.75,3,3.811,3.811,0,0,1,3.112-.75Zm0,6A2.311,2.311,0,0,0,5.474,3,2.311,2.311,0,0,0,3.112.75,2.311,2.311,0,0,0,.75,3,2.311,2.311,0,0,0,3.112,5.25Z" fill="#707070"/></g></g></svg>