<?xml version="1.0" encoding="UTF-8"?><svg id="a" xmlns="http://www.w3.org/2000/svg" xmlns:xlink="http://www.w3.org/1999/xlink" viewBox="0 0 1200 1200"><defs><style>.d,.e{fill:none;}.f{fill:#f2f5f7;}.g{fill:#c1e0da;}.h{clip-path:url(#c);}.e{stroke:#042160;stroke-linecap:round;stroke-linejoin:round;stroke-width:14.16px;}</style><clipPath id="c"><rect class="d" x="266.98" y="209.24" width="666.04" height="781.52"/></clipPath></defs><rect class="f" width="1200" height="1200"/><g id="b"><g class="h"><path class="g" d="M297.93,695.97c32.45-50.09,121.88-93.51,192.34-136.22,123.21-74.68,308.35,23.25,315.99,104.65,7.63,81.4,2.42,216.21-123.65,292.37-93.67,56.59-236.93,33.31-309.88-3.32-79.38-39.87-140.44-156.15-74.8-257.48"/><path class="e" d="M295.25,552.84c70.63,7.85,130.11,4.15,181.29-20.01,56.51-26.68,102.81-73.38,138.91-118.9,36.1-45.52,97.31-111.44,100.45-163.24,3.14-51.8,81.62-45.52,75.34,21.97-6.28,67.49-45.52,122.43-61.22,158.53-15.69,36.1-16.87,94.57-16.87,94.57"/><path class="e" d="M735.52,512.82c54.94,3.14,148.12,30.4,171.87,54.15,28.25,28.25,23.54,80.83-9.42,96.53-32.96,15.7-136.55,6.28-161.67-1.57-50.23-15.7-42.92-56.72-6.28-67.49,26.68-7.85,76.12-3.92,102.02,0"/><path class="e" d="M888.55,665.07c40.81,18.84,36.1,81.62,1.57,95.75-34.53,14.12-120.07,17.26-167.94-4.71-31.94-14.66-47.87-52.58-25.9-76.13"/><path class="e" d="M872.86,765.52c21.97,31.39,11.63,76.16-30.61,84.76-42.38,8.63-106.53,3.51-142.05-26.68-15.7-13.34-28.25-32.17-13.34-55.72"/><path class="e" d="M817.92,859.7c12.56,34.53-15.7,67.49-42.38,73.77-26.68,6.28-78.48,2.35-103.59-26.68-14.52-16.79-18.05-63.57,15.7-61.21"/><path class="e" d="M668.03,933.47c-53.37,26.68-123.21,19.62-165.59,3.14-38.73-15.06-153.04-14.13-228.38-28.25"/><path class="e" d="M681.37,597.58c1.57,50.23-17.26,156.96-62.79,189.92"/><path class="e" d="M811.93,590.59c-6.04-8.35-10.05-18.15-11.6-28.34"/></g></g></svg>