<?xml version="1.0" encoding="UTF-8"?><svg id="a" xmlns="http://www.w3.org/2000/svg" viewBox="0 0 1200 1200"><defs><style>.c{fill:#f2f5f7;}.d{fill:#fc8b8b;}.e{fill:none;stroke:#042160;stroke-linecap:round;stroke-linejoin:round;stroke-width:15.94px;}</style></defs><rect class="c" width="1200" height="1200"/><g id="b"><g><path class="d" d="M845.55,410.68c-87.48-79.52-289.73-83.38-422.98-18.47-133.26,64.9-127.71,329.17-11.22,388.68,116.49,59.51,264.13,77.92,372.44,29.72,108.3-48.2,208.77-266.29,61.76-399.93"/><path class="e" d="M894.59,331.16c-149.77-25.18-277.02-25.21-387.02-11.93-76.87,9.28-153.75,22.53-196.16,63.62-25.62,24.82-15.91,62.3-15.91,62.3"/><path class="e" d="M315.38,434.54c-33.14,25.18-51.69,49.04-55.67,70.25-3.97,21.2,10.61,42.41,10.61,42.41"/><path class="e" d="M314.05,527.32c-29.16,29.16-46.39,46.39-47.71,71.57-1.33,25.18,5.3,46.39,17.23,54.34"/><path class="e" d="M329.96,643.96c-26.51,23.86-54.34,46.39-51.69,74.22,2.65,27.84,27.83,102.06,117.96,45.07"/><path class="e" d="M361.77,742.04c35.79,25.18,117.96,38.44,151.1,37.11"/><path class="e" d="M486.36,784.45c-10.6,51.69-50.37,82.18-60.97,140.49-7.6,41.81,0,102.06,43.74,107.36,43.74,5.3,51.69-70.24,59.64-91.45,7.96-21.21,66.27-57.5,103.39-106.03,17.23-22.54,35.78-68.93,76.87-104.71,64.41-56.1,231.95-55.67,231.95-55.67"/></g></g></svg>