<svg xmlns="http://www.w3.org/2000/svg" width="16.5" height="16.5" viewBox="0 0 16.5 16.5"><g transform="translate(-1422.25 -4093.25)"><path d="M7.5-.75A8.25,8.25,0,1,1-.75,7.5,8.259,8.259,0,0,1,7.5-.75Zm0,15A6.75,6.75,0,1,0,.75,7.5,6.758,6.758,0,0,0,7.5,14.25Z" transform="translate(1423 4094)" fill="#707070"/><path d="M0,5.315a.75.75,0,0,1-.75-.75V0A.75.75,0,0,1,0-.75.75.75,0,0,1,.75,0V4.565A.75.75,0,0,1,0,5.315Z" transform="translate(1430.5 4096.935)" fill="#707070"/><path d="M2.609,3.685a.748.748,0,0,1-.561-.252L-.561.5A.75.75,0,0,1-.5-.561.75.75,0,0,1,.561-.5L3.169,2.437a.75.75,0,0,1-.56,1.248Z" transform="translate(1430.5 4101.5)" fill="#707070"/></g></svg>