<svg xmlns="http://www.w3.org/2000/svg" width="18.637" height="22.245" viewBox="0 0 18.637 22.245"><g transform="translate(-99.939 1878.076)"><g transform="translate(100.689 -1872.365)"><g transform="translate(0 2.255)"><path d="M2-.75H15.137A2.753,2.753,0,0,1,17.887,2v9.529a2.753,2.753,0,0,1-2.75,2.75H2a2.753,2.753,0,0,1-2.75-2.75V2A2.753,2.753,0,0,1,2-.75ZM15.137,12.779a1.251,1.251,0,0,0,1.25-1.25V2A1.251,1.251,0,0,0,15.137.75H2A1.251,1.251,0,0,0,.75,2v9.529A1.251,1.251,0,0,0,2,12.779Z" fill="#b2b2b2"/><g transform="translate(7.667 4.51)"><path d="M.9-.75A1.652,1.652,0,1,1-.75.9,1.654,1.654,0,0,1,.9-.75Zm0,1.8A.152.152,0,1,0,.75.9.152.152,0,0,0,.9,1.054Z" fill="#b2b2b2"/><path d="M0,3.456a.75.75,0,0,1-.75-.75V0A.75.75,0,0,1,0-.75.75.75,0,0,1,.75,0V2.706A.75.75,0,0,1,0,3.456Z" transform="translate(0.902 1.804)" fill="#b2b2b2"/></g></g><g transform="translate(3.608)"><path d="M0,2.945A.75.75,0,0,1-.75,2.2V0A.75.75,0,0,1,0-.75.75.75,0,0,1,.75,0V2.2A.75.75,0,0,1,0,2.945Z" transform="translate(9.922)" fill="#b2b2b2"/><path d="M0,2.945A.75.75,0,0,1-.75,2.2V0A.75.75,0,0,1,0-.75.75.75,0,0,1,.75,0V2.2A.75.75,0,0,1,0,2.945Z" fill="#b2b2b2"/></g></g><path d="M1004.921,880.711a.75.75,0,0,1-.75-.75,4.211,4.211,0,1,0-8.421,0,.75.75,0,0,1-1.5,0,5.711,5.711,0,1,1,11.421,0A.75.75,0,0,1,1004.921,880.711Z" transform="translate(-890.703 -2752.326)" fill="#b2b2b2"/></g></svg>