<svg xmlns="http://www.w3.org/2000/svg" width="18.637" height="22.238" viewBox="0 0 18.637 22.238"><g transform="translate(-101.065 2217.743)"><g transform="translate(101.815 -2209.784)"><path d="M2-.75H15.137A2.753,2.753,0,0,1,17.887,2v9.53a2.753,2.753,0,0,1-2.75,2.75H2A2.753,2.753,0,0,1-.75,11.53V2A2.753,2.753,0,0,1,2-.75ZM15.137,12.78a1.251,1.251,0,0,0,1.25-1.25V2A1.251,1.251,0,0,0,15.137.75H2A1.251,1.251,0,0,0,.75,2v9.53A1.251,1.251,0,0,0,2,12.78Z" fill="#4dc1ff"/><g transform="translate(7.667 4.51)"><path d="M.9-.75A1.652,1.652,0,1,1-.75.9,1.654,1.654,0,0,1,.9-.75Zm0,1.8A.152.152,0,1,0,.75.9.152.152,0,0,0,.9,1.054Z" fill="#4dc1ff"/><path d="M0,3.456a.75.75,0,0,1-.75-.75V0A.75.75,0,0,1,0-.75.75.75,0,0,1,.75,0V2.706A.75.75,0,0,1,0,3.456Z" transform="translate(0.902 1.804)" fill="#4dc1ff"/></g></g><g transform="translate(105.423 -2216.992)"><g transform="translate(0)"><path d="M1093.5,882.964a.75.75,0,0,1-.7-.494l-.2-.556a5.718,5.718,0,0,1,3.413-7.32,5.84,5.84,0,0,1,6.041,1.379.75.75,0,1,1-1.009,1.11,4.333,4.333,0,0,0-4.52-1.08,4.216,4.216,0,0,0-2.517,5.4l.2.556a.75.75,0,0,1-.7,1.007Z" transform="translate(-1092.999 -875.006)" fill="#4dc1ff"/></g></g></g></svg>