<svg xmlns="http://www.w3.org/2000/svg" width="14.189" height="15.096" viewBox="0 0 14.189 15.096"><g transform="translate(-802.565 -9188.621)"><g transform="translate(803.565 9186.869)"><path d="M812.095,9184.1a1,1,0,0,1-.707-.293l-6.095-6.1a1,1,0,0,1,1.414-1.414l5.388,5.389,5.388-5.389a1,1,0,0,1,1.414,1.414l-6.095,6.1A1,1,0,0,1,812.095,9184.1Z" transform="translate(-806 -9167.248)" fill="#4dc1ff"/><path d="M812.095,9184.1a1,1,0,0,1-.707-.293l-6.095-6.1a1,1,0,0,1,1.414-1.414l5.388,5.389,5.388-5.389a1,1,0,0,1,1.414,1.414l-6.095,6.1A1,1,0,0,1,812.095,9184.1Z" transform="translate(-806 -9174.248)" fill="#4dc1ff"/></g></g></svg>